<svg width="707" height="110" viewBox="0 0 707 110" fill="none" xmlns="http://www.w3.org/2000/svg">
<g clip-path="url(#clip0_1530_308)">
<path d="M191.635 76.5038C195.578 76.5038 198.371 75.7925 200.452 74.2604V67.3113C198.316 68.7887 195.742 69.7189 192.128 69.7189C186.048 69.7189 183.529 65.0132 183.529 57.5717C183.529 49.7472 186.596 45.7528 192.182 45.7528C195.468 45.7528 198.7 46.9019 200.398 47.9962V40.7736C198.59 39.7887 195.469 39.0774 191.197 39.0774C180.298 39.0774 174.657 46.9019 174.657 57.8453C174.711 69.8283 180.243 76.5038 191.635 76.5038ZM138.345 73.3302V66.3811C135.716 68.1868 131.225 69.7736 127.118 69.7736C120.874 69.7736 118.519 66.8189 118.136 60.8H138.728V56.3132C138.728 43.783 133.197 39.0774 124.708 39.0774C114.302 39.0774 109.373 47.0113 109.373 57.9C109.373 70.4302 115.561 76.5038 126.406 76.5038C131.828 76.5038 135.826 75.0264 138.345 73.3302ZM60.1906 39.734V53.9604H48.7988V39.734H40.2549V75.7925H48.7988V60.7453H60.1906V75.7925H68.7344V39.734H60.1906ZM107.237 69.0075H103.458V39.734H78.5928V42.7981C78.5928 51.6076 78.0451 62.9887 75.0328 69.0075H72.2944V84H80.181V75.7925H99.2952V84H107.182V69.0075H107.237ZM165.565 75.7925H175.259L161.567 56.3679L173.616 39.734H165.017L152.968 56.3679V39.734H144.424V75.7925H152.968V58.0642L165.565 75.7925ZM124.489 45.7528C128.706 45.7528 130.02 49.2547 130.02 53.7962V54.5075H118.136C118.355 48.7623 120.436 45.7528 124.489 45.7528ZM94.9137 69.0075H82.8647C85.2197 63.5906 85.877 53.7415 85.877 47.5038V46.4094H94.9137V69.0075Z" fill="white"/>
<path d="M33.1349 75.7925H24.4267V32.7302H20.5381C13.4183 32.7302 9.69401 36.2868 9.69401 41.5943C9.69401 47.6132 12.2681 50.4038 17.5807 53.9604L21.9621 56.9151L9.36539 75.7925H0L11.3371 58.9396C4.81962 54.2887 1.15014 49.7472 1.15014 42.0868C1.15014 32.5113 7.83188 26 20.4834 26H33.0801V75.7925H33.1349Z" fill="#FC3F1D"/>
</g>
<rect opacity="0.25" x="225.452" width="5" height="110" rx="2.5" fill="white"/>
<path d="M282.352 6.10402C281.183 4.9124 279.774 3.97982 278.244 3.32357C276.697 2.68458 275.064 2.35645 273.397 2.35645C271.73 2.35645 270.08 2.68458 268.55 3.32357C267.003 3.96255 265.611 4.9124 264.442 6.10402L257.223 13.3919C256.071 14.5145 255.452 16.0342 255.452 17.623C255.452 19.2119 256.071 20.7316 257.188 21.8542L286.288 51.213C286.787 51.7138 287.199 52.3183 287.457 52.9918C287.732 53.648 287.869 54.3734 287.869 55.0814C287.869 55.8068 287.732 56.5148 287.457 57.1711C287.182 57.8274 286.787 58.4318 286.288 58.9499L262.053 83.4213C259.681 85.8219 258.34 89.0686 258.34 92.4708C258.34 95.8557 259.681 99.1197 262.053 101.52L264.459 103.955C266.831 106.356 270.062 107.703 273.431 107.703C276.8 107.703 280.014 106.356 282.404 103.955L306.639 79.4838C307.137 78.983 307.739 78.5685 308.392 78.2922C309.045 78.0159 309.75 77.8777 310.472 77.8777C311.177 77.8777 311.881 78.0159 312.552 78.2922C313.205 78.5685 313.806 78.9657 314.305 79.4838L342.476 107.927C344.127 109.274 346.189 110.017 348.303 110C350.435 109.982 352.48 109.24 354.113 107.876L390.638 71.0216C390.827 70.8661 391.016 70.7107 391.188 70.5207L401.312 60.297C402.24 59.3644 402.893 58.2073 403.22 56.9293C403.546 55.6513 403.529 54.3216 403.168 53.0609C402.824 51.8692 402.206 50.7985 401.329 49.935L391.205 39.7285C391.102 39.6249 390.982 39.5385 390.879 39.4349L354.061 2.28737C352.772 0.974862 351.036 0.214986 349.214 0.163177C348.028 -0.0958717 346.808 -0.044062 345.656 0.301336C344.505 0.646734 343.456 1.26845 342.597 2.13194L323.965 20.9216C321.283 23.6157 321.301 27.985 323.982 30.6791L334.69 41.4382C337.372 44.1323 341.737 44.1323 344.419 41.421C344.917 40.9201 345.519 40.5057 346.172 40.2293C346.825 39.953 347.53 39.8149 348.252 39.8149C348.956 39.8149 349.661 39.953 350.331 40.2293C350.985 40.5057 351.586 40.9029 352.085 41.421L361.83 51.2648C362.845 52.2837 363.412 53.6826 363.412 55.1332C363.412 56.5839 362.845 57.9655 361.83 59.0017L352.136 68.7937C351.638 69.2946 351.036 69.709 350.383 69.9854C349.73 70.2617 349.025 70.3998 348.303 70.3998C347.581 70.3998 346.894 70.2617 346.223 69.9854C345.57 69.709 344.969 69.3118 344.47 68.7937" fill="white"/>
<path d="M425.324 57C425.036 57 424.796 56.904 424.604 56.712C424.412 56.52 424.316 56.28 424.316 55.992C424.316 55.896 424.332 55.8 424.364 55.704C424.396 55.608 424.428 55.512 424.46 55.416L435.212 39.864L425.132 24.984C425.036 24.792 424.988 24.6 424.988 24.408C424.988 24.12 425.084 23.88 425.276 23.688C425.468 23.496 425.692 23.4 425.948 23.4H430.892C431.276 23.4 431.58 23.496 431.804 23.688C432.028 23.88 432.22 24.088 432.38 24.312L439.436 34.68L446.54 24.312C446.668 24.088 446.844 23.88 447.068 23.688C447.324 23.496 447.644 23.4 448.028 23.4H452.684C452.972 23.4 453.212 23.496 453.404 23.688C453.596 23.88 453.692 24.12 453.692 24.408C453.692 24.6 453.628 24.792 453.5 24.984L443.468 39.864L454.22 55.416C454.284 55.512 454.332 55.608 454.364 55.704C454.396 55.8 454.412 55.896 454.412 55.992C454.412 56.28 454.3 56.52 454.076 56.712C453.884 56.904 453.66 57 453.404 57H448.316C447.932 57 447.628 56.904 447.404 56.712C447.18 56.52 447.004 56.328 446.876 56.136L439.196 45.288L431.66 56.136C431.532 56.328 431.356 56.52 431.132 56.712C430.908 56.904 430.588 57 430.172 57H425.324ZM460.13 57C459.81 57 459.538 56.888 459.314 56.664C459.09 56.44 458.978 56.168 458.978 55.848V24.552C458.978 24.232 459.09 23.96 459.314 23.736C459.538 23.512 459.81 23.4 460.13 23.4H464.594C464.914 23.4 465.186 23.512 465.41 23.736C465.634 23.96 465.746 24.232 465.746 24.552V51.288H480.962C481.314 51.288 481.602 51.4 481.826 51.624C482.05 51.848 482.162 52.136 482.162 52.488V55.848C482.162 56.168 482.05 56.44 481.826 56.664C481.602 56.888 481.314 57 480.962 57H460.13ZM508.235 57.48C505.259 57.48 502.763 57.048 500.747 56.184C498.763 55.288 497.243 54.136 496.187 52.728C495.163 51.288 494.619 49.784 494.555 48.216C494.555 47.928 494.651 47.688 494.843 47.496C495.035 47.304 495.275 47.208 495.563 47.208H499.835C500.251 47.208 500.555 47.304 500.747 47.496C500.971 47.656 501.163 47.864 501.323 48.12C501.515 48.728 501.883 49.336 502.427 49.944C502.971 50.52 503.707 51 504.635 51.384C505.595 51.768 506.795 51.96 508.235 51.96C510.539 51.96 512.251 51.576 513.371 50.808C514.523 50.04 515.099 49 515.099 47.688C515.099 46.76 514.795 46.024 514.187 45.48C513.579 44.904 512.635 44.392 511.355 43.944C510.107 43.464 508.443 42.968 506.363 42.456C503.963 41.88 501.947 41.192 500.315 40.392C498.715 39.56 497.499 38.52 496.667 37.272C495.867 36.024 495.467 34.44 495.467 32.52C495.467 30.664 495.963 29.016 496.955 27.576C497.979 26.136 499.419 25 501.275 24.168C503.163 23.336 505.403 22.92 507.995 22.92C510.075 22.92 511.915 23.208 513.515 23.784C515.115 24.328 516.443 25.064 517.499 25.992C518.555 26.888 519.355 27.864 519.899 28.92C520.475 29.944 520.779 30.952 520.811 31.944C520.811 32.2 520.715 32.44 520.523 32.664C520.363 32.856 520.123 32.952 519.803 32.952H515.339C515.083 32.952 514.827 32.888 514.571 32.76C514.315 32.632 514.107 32.392 513.947 32.04C513.755 31.048 513.131 30.2 512.075 29.496C511.019 28.792 509.659 28.44 507.995 28.44C506.267 28.44 504.875 28.76 503.819 29.4C502.763 30.04 502.235 31.032 502.235 32.376C502.235 33.272 502.491 34.024 503.003 34.632C503.547 35.208 504.395 35.72 505.547 36.168C506.731 36.616 508.283 37.096 510.203 37.608C512.923 38.216 515.147 38.92 516.875 39.72C518.603 40.52 519.867 41.544 520.667 42.792C521.467 44.008 521.867 45.56 521.867 47.448C521.867 49.56 521.291 51.368 520.139 52.872C519.019 54.344 517.435 55.48 515.387 56.28C513.339 57.08 510.955 57.48 508.235 57.48ZM537.832 57.48C535.272 57.48 533.112 57.032 531.352 56.136C529.624 55.24 528.296 53.976 527.368 52.344C526.472 50.712 525.96 48.808 525.832 46.632C525.8 46.056 525.784 45.352 525.784 44.52C525.784 43.688 525.8 42.984 525.832 42.408C525.96 40.2 526.488 38.296 527.416 36.696C528.376 35.064 529.72 33.8 531.448 32.904C533.208 32.008 535.336 31.56 537.832 31.56C540.328 31.56 542.44 32.008 544.168 32.904C545.928 33.8 547.272 35.064 548.2 36.696C549.16 38.296 549.704 40.2 549.832 42.408C549.864 42.984 549.88 43.688 549.88 44.52C549.88 45.352 549.864 46.056 549.832 46.632C549.704 48.808 549.176 50.712 548.248 52.344C547.352 53.976 546.024 55.24 544.264 56.136C542.536 57.032 540.392 57.48 537.832 57.48ZM537.832 52.728C539.528 52.728 540.84 52.2 541.768 51.144C542.696 50.056 543.208 48.472 543.304 46.392C543.336 45.912 543.352 45.288 543.352 44.52C543.352 43.752 543.336 43.128 543.304 42.648C543.208 40.6 542.696 39.032 541.768 37.944C540.84 36.856 539.528 36.312 537.832 36.312C536.136 36.312 534.824 36.856 533.896 37.944C532.968 39.032 532.456 40.6 532.36 42.648C532.328 43.128 532.312 43.752 532.312 44.52C532.312 45.288 532.328 45.912 532.36 46.392C532.456 48.472 532.968 50.056 533.896 51.144C534.824 52.2 536.136 52.728 537.832 52.728ZM558.757 57C558.437 57 558.165 56.888 557.941 56.664C557.717 56.44 557.605 56.168 557.605 55.848V37.128H553.717C553.397 37.128 553.125 37.016 552.901 36.792C552.677 36.568 552.565 36.296 552.565 35.976V33.192C552.565 32.872 552.677 32.6 552.901 32.376C553.125 32.152 553.397 32.04 553.717 32.04H557.605V30.072C557.605 28.152 557.957 26.568 558.661 25.32C559.365 24.04 560.405 23.08 561.781 22.44C563.157 21.8 564.901 21.48 567.013 21.48H570.277C570.629 21.48 570.901 21.592 571.093 21.816C571.317 22.04 571.429 22.312 571.429 22.632V25.416C571.429 25.736 571.317 26.008 571.093 26.232C570.901 26.456 570.629 26.568 570.277 26.568H567.205C565.925 26.568 565.045 26.888 564.565 27.528C564.085 28.168 563.845 29.096 563.845 30.312V32.04H569.797C570.149 32.04 570.421 32.152 570.613 32.376C570.837 32.6 570.949 32.872 570.949 33.192V35.976C570.949 36.296 570.837 36.568 570.613 36.792C570.421 37.016 570.149 37.128 569.797 37.128H563.845V55.848C563.845 56.168 563.733 56.44 563.509 56.664C563.285 56.888 563.013 57 562.693 57H558.757ZM586.072 57C584.152 57 582.536 56.664 581.224 55.992C579.912 55.32 578.936 54.328 578.296 53.016C577.656 51.672 577.336 50.008 577.336 48.024V37.128H573.544C573.224 37.128 572.952 37.016 572.728 36.792C572.504 36.568 572.392 36.296 572.392 35.976V33.192C572.392 32.872 572.504 32.6 572.728 32.376C572.952 32.152 573.224 32.04 573.544 32.04H577.336V24.072C577.336 23.752 577.432 23.48 577.624 23.256C577.848 23.032 578.136 22.92 578.488 22.92H582.376C582.696 22.92 582.968 23.032 583.192 23.256C583.416 23.48 583.528 23.752 583.528 24.072V32.04H589.528C589.848 32.04 590.12 32.152 590.344 32.376C590.568 32.6 590.68 32.872 590.68 33.192V35.976C590.68 36.296 590.568 36.568 590.344 36.792C590.12 37.016 589.848 37.128 589.528 37.128H583.528V47.544C583.528 48.856 583.752 49.88 584.2 50.616C584.68 51.352 585.496 51.72 586.648 51.72H589.96C590.28 51.72 590.552 51.832 590.776 52.056C591 52.28 591.112 52.552 591.112 52.872V55.848C591.112 56.168 591 56.44 590.776 56.664C590.552 56.888 590.28 57 589.96 57H586.072ZM602.186 57C601.738 57 601.402 56.888 601.178 56.664C600.954 56.44 600.762 56.152 600.602 55.8L593.738 33.528C593.706 33.368 593.69 33.224 593.69 33.096C593.69 32.808 593.786 32.568 593.978 32.376C594.202 32.152 594.442 32.04 594.698 32.04H598.25C598.634 32.04 598.938 32.152 599.162 32.376C599.386 32.568 599.514 32.76 599.546 32.952L604.25 48.84L609.242 33.096C609.306 32.872 609.45 32.648 609.674 32.424C609.898 32.168 610.234 32.04 610.682 32.04H613.082C613.53 32.04 613.866 32.168 614.09 32.424C614.314 32.648 614.458 32.872 614.522 33.096L619.514 48.84L624.218 32.952C624.25 32.76 624.362 32.568 624.554 32.376C624.778 32.152 625.082 32.04 625.466 32.04H629.018C629.306 32.04 629.546 32.152 629.738 32.376C629.962 32.568 630.074 32.808 630.074 33.096C630.074 33.224 630.042 33.368 629.978 33.528L623.114 55.8C623.018 56.152 622.842 56.44 622.586 56.664C622.362 56.888 622.026 57 621.578 57H618.458C618.01 57 617.658 56.888 617.402 56.664C617.146 56.44 616.97 56.152 616.874 55.8L611.882 40.632L606.89 55.8C606.762 56.152 606.57 56.44 606.314 56.664C606.09 56.888 605.738 57 605.258 57H602.186ZM641.243 57.48C639.579 57.48 638.075 57.16 636.731 56.52C635.387 55.848 634.315 54.968 633.515 53.88C632.747 52.76 632.363 51.512 632.363 50.136C632.363 47.896 633.259 46.12 635.051 44.808C636.875 43.464 639.275 42.568 642.251 42.12L648.827 41.16V40.152C648.827 38.808 648.491 37.768 647.819 37.032C647.147 36.296 645.995 35.928 644.363 35.928C643.211 35.928 642.267 36.168 641.531 36.648C640.827 37.096 640.299 37.704 639.947 38.472C639.691 38.888 639.323 39.096 638.843 39.096H635.051C634.699 39.096 634.427 39 634.235 38.808C634.075 38.616 633.995 38.36 633.995 38.04C634.027 37.528 634.235 36.904 634.619 36.168C635.003 35.432 635.611 34.728 636.443 34.056C637.275 33.352 638.347 32.76 639.659 32.28C640.971 31.8 642.555 31.56 644.411 31.56C646.427 31.56 648.123 31.816 649.499 32.328C650.907 32.808 652.027 33.464 652.859 34.296C653.691 35.128 654.299 36.104 654.683 37.224C655.067 38.344 655.259 39.528 655.259 40.776V55.848C655.259 56.168 655.147 56.44 654.923 56.664C654.699 56.888 654.427 57 654.107 57H650.219C649.867 57 649.579 56.888 649.355 56.664C649.163 56.44 649.067 56.168 649.067 55.848V53.976C648.651 54.584 648.091 55.16 647.387 55.704C646.683 56.216 645.819 56.648 644.795 57C643.803 57.32 642.619 57.48 641.243 57.48ZM642.875 52.92C643.995 52.92 645.003 52.68 645.899 52.2C646.827 51.72 647.547 50.984 648.059 49.992C648.603 48.968 648.875 47.688 648.875 46.152V45.144L644.075 45.912C642.187 46.2 640.779 46.664 639.851 47.304C638.923 47.944 638.459 48.728 638.459 49.656C638.459 50.36 638.667 50.968 639.083 51.48C639.531 51.96 640.091 52.328 640.763 52.584C641.435 52.808 642.139 52.92 642.875 52.92ZM662.569 57C662.249 57 661.977 56.888 661.753 56.664C661.529 56.44 661.417 56.168 661.417 55.848V33.24C661.417 32.888 661.529 32.6 661.753 32.376C661.977 32.152 662.249 32.04 662.569 32.04H666.457C666.777 32.04 667.049 32.152 667.273 32.376C667.529 32.6 667.657 32.888 667.657 33.24V35.208C668.393 34.184 669.337 33.4 670.489 32.856C671.673 32.312 673.033 32.04 674.569 32.04H676.537C676.889 32.04 677.161 32.152 677.353 32.376C677.577 32.6 677.689 32.872 677.689 33.192V36.648C677.689 36.968 677.577 37.24 677.353 37.464C677.161 37.688 676.889 37.8 676.537 37.8H672.793C671.257 37.8 670.057 38.232 669.193 39.096C668.361 39.96 667.945 41.144 667.945 42.648V55.848C667.945 56.168 667.833 56.44 667.609 56.664C667.385 56.888 667.097 57 666.745 57H662.569ZM691.857 57.48C688.305 57.48 685.489 56.456 683.409 54.408C681.329 52.36 680.209 49.448 680.049 45.672C680.017 45.352 680.001 44.952 680.001 44.472C680.001 43.96 680.017 43.56 680.049 43.272C680.177 40.872 680.721 38.792 681.681 37.032C682.673 35.272 684.033 33.928 685.761 33C687.489 32.04 689.521 31.56 691.857 31.56C694.449 31.56 696.625 32.104 698.385 33.192C700.145 34.248 701.473 35.736 702.369 37.656C703.265 39.544 703.713 41.736 703.713 44.232V45.24C703.713 45.56 703.601 45.832 703.377 46.056C703.153 46.28 702.865 46.392 702.513 46.392H686.577C686.577 46.392 686.577 46.44 686.577 46.536C686.577 46.632 686.577 46.712 686.577 46.776C686.609 47.896 686.817 48.936 687.201 49.896C687.617 50.824 688.209 51.576 688.977 52.152C689.777 52.728 690.721 53.016 691.809 53.016C692.705 53.016 693.457 52.888 694.065 52.632C694.673 52.344 695.169 52.024 695.553 51.672C695.937 51.32 696.209 51.032 696.369 50.808C696.657 50.424 696.881 50.2 697.041 50.136C697.233 50.04 697.505 49.992 697.857 49.992H701.985C702.305 49.992 702.561 50.088 702.753 50.28C702.977 50.472 703.073 50.712 703.041 51C703.009 51.512 702.737 52.136 702.225 52.872C701.745 53.608 701.041 54.328 700.113 55.032C699.185 55.736 698.017 56.328 696.609 56.808C695.233 57.256 693.649 57.48 691.857 57.48ZM686.577 42.36H697.185V42.216C697.185 40.968 696.977 39.88 696.561 38.952C696.145 38.024 695.537 37.288 694.737 36.744C693.937 36.2 692.977 35.928 691.857 35.928C690.737 35.928 689.777 36.2 688.977 36.744C688.177 37.288 687.569 38.024 687.153 38.952C686.769 39.88 686.577 40.968 686.577 42.216V42.36Z" fill="white"/>
<path d="M427.772 93C427.639 93 427.532 92.96 427.452 92.88C427.372 92.8 427.332 92.6933 427.332 92.56V79.46C427.332 79.3133 427.372 79.2 427.452 79.12C427.532 79.04 427.639 79 427.772 79H432.632C433.566 79 434.372 79.16 435.052 79.48C435.746 79.7867 436.279 80.2467 436.652 80.86C437.039 81.4733 437.232 82.2333 437.232 83.14C437.232 84.0467 437.039 84.8067 436.652 85.42C436.279 86.0333 435.746 86.5 435.052 86.82C434.372 87.1267 433.566 87.28 432.632 87.28H428.592V92.56C428.592 92.6933 428.552 92.8 428.472 92.88C428.392 92.96 428.279 93 428.132 93H427.772ZM428.592 86.08H432.532C433.692 86.08 434.552 85.8267 435.112 85.32C435.686 84.8133 435.972 84.0867 435.972 83.14C435.972 82.1933 435.686 81.4667 435.112 80.96C434.552 80.4533 433.692 80.2 432.532 80.2H428.592V86.08ZM444.631 93.2C443.524 93.2 442.584 93.0067 441.811 92.62C441.038 92.22 440.444 91.6133 440.031 90.8C439.618 89.9733 439.391 88.9333 439.351 87.68C439.338 87.08 439.331 86.52 439.331 86C439.331 85.48 439.338 84.92 439.351 84.32C439.391 83.08 439.631 82.0533 440.071 81.24C440.511 80.4133 441.118 79.8 441.891 79.4C442.678 79 443.591 78.8 444.631 78.8C445.671 78.8 446.578 79 447.351 79.4C448.138 79.8 448.751 80.4133 449.191 81.24C449.644 82.0533 449.884 83.08 449.911 84.32C449.938 84.92 449.951 85.48 449.951 86C449.951 86.52 449.938 87.08 449.911 87.68C449.884 88.9333 449.658 89.9733 449.231 90.8C448.818 91.6133 448.224 92.22 447.451 92.62C446.678 93.0067 445.738 93.2 444.631 93.2ZM444.631 92C445.778 92 446.718 91.6533 447.451 90.96C448.198 90.2667 448.598 89.14 448.651 87.58C448.678 86.98 448.691 86.4533 448.691 86C448.691 85.5467 448.678 85.02 448.651 84.42C448.624 83.38 448.431 82.5333 448.071 81.88C447.724 81.2267 447.251 80.7533 446.651 80.46C446.064 80.1533 445.391 80 444.631 80C443.884 80 443.211 80.1533 442.611 80.46C442.024 80.7533 441.551 81.2267 441.191 81.88C440.844 82.5333 440.651 83.38 440.611 84.42C440.598 85.02 440.591 85.5467 440.591 86C440.591 86.4533 440.598 86.98 440.611 87.58C440.664 89.14 441.064 90.2667 441.811 90.96C442.558 91.6533 443.498 92 444.631 92ZM455.377 93C455.217 93 455.091 92.9667 454.997 92.9C454.917 92.82 454.857 92.6933 454.817 92.52L452.077 79.64C452.064 79.5867 452.051 79.54 452.037 79.5C452.037 79.4467 452.037 79.4133 452.037 79.4C452.037 79.2933 452.077 79.2 452.157 79.12C452.237 79.04 452.331 79 452.437 79H452.857C453.111 79 453.257 79.1 453.297 79.3L455.637 90.7L458.117 82.56C458.157 82.44 458.224 82.3333 458.317 82.24C458.424 82.1467 458.564 82.1 458.737 82.1H459.177C459.364 82.1 459.504 82.1467 459.597 82.24C459.691 82.3333 459.757 82.44 459.797 82.56L462.277 90.7L464.617 79.3C464.657 79.1 464.804 79 465.057 79H465.477C465.584 79 465.677 79.04 465.757 79.12C465.837 79.2 465.877 79.2933 465.877 79.4C465.877 79.4133 465.871 79.4467 465.857 79.5C465.857 79.54 465.851 79.5867 465.837 79.64L463.097 92.52C463.057 92.6933 462.991 92.82 462.897 92.9C462.817 92.9667 462.697 93 462.537 93H462.237C462.077 93 461.944 92.96 461.837 92.88C461.744 92.8 461.671 92.68 461.617 92.52L458.957 84.08L456.297 92.52C456.244 92.68 456.164 92.8 456.057 92.88C455.964 92.96 455.837 93 455.677 93H455.377ZM469.159 93C469.026 93 468.919 92.96 468.839 92.88C468.759 92.8 468.719 92.6933 468.719 92.56V79.46C468.719 79.3133 468.759 79.2 468.839 79.12C468.919 79.04 469.026 79 469.159 79H476.959C477.106 79 477.219 79.04 477.299 79.12C477.379 79.2 477.419 79.3133 477.419 79.46V79.76C477.419 79.8933 477.379 80 477.299 80.08C477.219 80.16 477.106 80.2 476.959 80.2H469.979V85.3H476.519C476.666 85.3 476.779 85.34 476.859 85.42C476.939 85.5 476.979 85.6133 476.979 85.76V86.06C476.979 86.1933 476.939 86.3 476.859 86.38C476.779 86.46 476.666 86.5 476.519 86.5H469.979V91.8H477.119C477.266 91.8 477.379 91.84 477.459 91.92C477.539 92 477.579 92.1133 477.579 92.26V92.56C477.579 92.6933 477.539 92.8 477.459 92.88C477.379 92.96 477.266 93 477.119 93H469.159ZM480.995 93C480.862 93 480.755 92.96 480.675 92.88C480.595 92.8 480.555 92.6933 480.555 92.56V79.46C480.555 79.3133 480.595 79.2 480.675 79.12C480.755 79.04 480.862 79 480.995 79H485.655C487.055 79 488.168 79.3333 488.995 80C489.835 80.6667 490.255 81.68 490.255 83.04C490.255 84.1067 489.988 84.96 489.455 85.6C488.922 86.24 488.182 86.6733 487.235 86.9L490.455 92.38C490.495 92.46 490.515 92.5333 490.515 92.6C490.515 92.7067 490.475 92.8 490.395 92.88C490.315 92.96 490.222 93 490.115 93H489.875C489.662 93 489.502 92.9467 489.395 92.84C489.288 92.72 489.195 92.5933 489.115 92.46L485.935 87.08H481.815V92.56C481.815 92.6933 481.775 92.8 481.695 92.88C481.615 92.96 481.502 93 481.355 93H480.995ZM481.815 85.88H485.555C486.715 85.88 487.575 85.6467 488.135 85.18C488.708 84.7 488.995 83.9867 488.995 83.04C488.995 82.0933 488.708 81.3867 488.135 80.92C487.575 80.44 486.715 80.2 485.555 80.2H481.815V85.88ZM493.788 93C493.655 93 493.548 92.96 493.468 92.88C493.388 92.8 493.348 92.6933 493.348 92.56V79.46C493.348 79.3133 493.388 79.2 493.468 79.12C493.548 79.04 493.655 79 493.788 79H501.588C501.735 79 501.848 79.04 501.928 79.12C502.008 79.2 502.048 79.3133 502.048 79.46V79.76C502.048 79.8933 502.008 80 501.928 80.08C501.848 80.16 501.735 80.2 501.588 80.2H494.608V85.3H501.148C501.295 85.3 501.408 85.34 501.488 85.42C501.568 85.5 501.608 85.6133 501.608 85.76V86.06C501.608 86.1933 501.568 86.3 501.488 86.38C501.408 86.46 501.295 86.5 501.148 86.5H494.608V91.8H501.748C501.895 91.8 502.008 91.84 502.088 91.92C502.168 92 502.208 92.1133 502.208 92.26V92.56C502.208 92.6933 502.168 92.8 502.088 92.88C502.008 92.96 501.895 93 501.748 93H493.788ZM505.624 93C505.491 93 505.384 92.96 505.304 92.88C505.224 92.8 505.184 92.6933 505.184 92.56V79.46C505.184 79.3133 505.224 79.2 505.304 79.12C505.384 79.04 505.491 79 505.624 79H509.884C511.297 79 512.404 79.2067 513.204 79.62C514.004 80.0333 514.571 80.6467 514.904 81.46C515.251 82.26 515.431 83.24 515.444 84.4C515.457 85 515.464 85.5333 515.464 86C515.464 86.4533 515.457 86.98 515.444 87.58C515.417 88.8067 515.237 89.82 514.904 90.62C514.571 91.42 514.011 92.02 513.224 92.42C512.437 92.8067 511.357 93 509.984 93H505.624ZM506.444 91.8H509.884C510.951 91.8 511.791 91.66 512.404 91.38C513.031 91.0867 513.477 90.6267 513.744 90C514.024 89.36 514.171 88.52 514.184 87.48C514.197 87.08 514.204 86.7333 514.204 86.44C514.204 86.1333 514.204 85.8333 514.204 85.54C514.204 85.2467 514.197 84.9 514.184 84.5C514.157 83.0333 513.817 81.9533 513.164 81.26C512.511 80.5533 511.384 80.2 509.784 80.2H506.444V91.8Z" fill="white"/>
<defs>
<clipPath id="clip0_1530_308">
<rect width="200.452" height="110" fill="white"/>
</clipPath>
</defs>
</svg>
